<svg width="15" height="15" viewBox="0 0 15 15" fill="none" xmlns="http://www.w3.org/2000/svg">
<path d="M1.73242 0.441406C1.17842 0.441406 0.732422 0.887406 0.732422 1.44141V13.4414C0.732422 13.9954 1.17842 14.4414 1.73242 14.4414C2.28642 14.4414 2.73242 13.9954 2.73242 13.4414V10.4414C2.73242 9.32501 3.61602 8.44141 4.73242 8.44141C5.84882 8.44141 6.73047 9.32501 6.73047 10.4414V13.4414C6.73047 13.9954 7.17637 14.4414 7.73047 14.4414C8.28447 14.4414 8.73047 13.9954 8.73047 13.4414V10.4414C8.73047 8.24411 6.92972 6.44141 4.73242 6.44141C4.00432 6.44141 3.32067 6.63967 2.73047 6.98438V1.44141C2.73047 0.887406 2.28447 0.441406 1.73047 0.441406H1.73242Z" fill="#241F31"/>
<path d="M9.73242 7.44141C9.73242 7.57273 9.75809 7.70277 9.80835 7.8241C9.8586 7.94542 9.93229 8.0557 10.0251 8.14856C10.118 8.24142 10.2283 8.3151 10.3496 8.36536C10.4709 8.41561 10.6011 8.44141 10.7324 8.44141H12.2341C12.5211 8.44241 12.7324 8.65411 12.7324 8.94141C12.7324 9.22871 12.5194 9.44041 12.2324 9.44141H10.7324C10.6011 9.44141 10.4709 9.46732 10.3496 9.51758C10.2283 9.56783 10.118 9.64152 10.0251 9.73438C9.93229 9.82723 9.8586 9.93739 9.80835 10.0587C9.75809 10.18 9.73242 10.3101 9.73242 10.4414C9.73242 10.5727 9.75809 10.7028 9.80835 10.8241C9.8586 10.9454 9.93229 11.0557 10.0251 11.1486C10.118 11.2414 10.2283 11.3151 10.3496 11.3654C10.4709 11.4156 10.6011 11.4414 10.7324 11.4414H12.2341C12.5204 11.4414 12.7302 11.6546 12.7302 11.9414C12.7302 12.2284 12.5204 12.4395 12.2341 12.4414H10.7363C10.605 12.4414 10.4748 12.4673 10.3535 12.5176C10.2322 12.5678 10.1219 12.6415 10.0291 12.7344C9.93619 12.8272 9.86251 12.9374 9.81226 13.0587C9.762 13.18 9.73633 13.3101 9.73633 13.4414C9.73633 13.5727 9.762 13.7028 9.81226 13.8241C9.86251 13.9454 9.93619 14.0557 10.0291 14.1486C10.1219 14.2414 10.2322 14.3151 10.3535 14.3654C10.4748 14.4156 10.605 14.4414 10.7363 14.4414H12.2341C13.6015 14.4414 14.7302 13.3092 14.7302 11.9414C14.7302 11.3808 14.5403 10.8608 14.2224 10.4414C14.5404 10.0219 14.7324 9.50191 14.7324 8.94141C14.7324 7.57321 13.602 6.44251 12.2341 6.44141H10.7341C10.6028 6.44141 10.4729 6.46732 10.3516 6.51758C10.2302 6.56783 10.12 6.64152 10.0271 6.73438C9.93424 6.82723 9.86056 6.93739 9.8103 7.05872C9.76005 7.18004 9.73413 7.31008 9.73413 7.44141H9.73242Z" fill="#241F31"/>
</svg>
