<svg width="16" height="15" viewBox="0 0 16 15" fill="none" xmlns="http://www.w3.org/2000/svg">
<path d="M12.7324 6.26172C11.4309 6.26172 10.3107 7.1102 9.89966 8.2793C9.71716 8.7985 10.1805 9.26172 10.7334 9.26172C11.2851 9.26172 11.7398 8.70134 12.1868 8.41724C12.3424 8.31824 12.5292 8.26172 12.7324 8.26172C13.2959 8.26172 13.7302 8.69742 13.7302 9.26172V9.27173C13.7202 10.0482 12.1492 10.6509 11.4299 11.1305L11.396 11.1526C10.8841 11.4938 10.4644 11.9561 10.1741 12.4985C9.88379 13.0409 9.73193 13.6466 9.73193 14.2618L14.7319 14.262C14.9972 14.262 15.2514 14.1565 15.439 13.969C15.6265 13.7815 15.7319 13.5272 15.7319 13.262C15.7319 13.1306 15.706 13.0006 15.6558 12.8793C15.6055 12.7579 15.5318 12.6477 15.439 12.5548C15.3461 12.462 15.2358 12.3883 15.1145 12.338C14.9932 12.2878 14.8633 12.262 14.7319 12.262H12.7319C14.3767 12.262 15.73 10.9068 15.73 9.26196C15.73 7.61716 14.3772 6.26172 12.7324 6.26172Z" fill="#241F31"/>
<path d="M1.73242 0.261719C1.17842 0.261719 0.732422 0.707719 0.732422 1.26172V13.2617C0.732422 13.8157 1.17842 14.2617 1.73242 14.2617C2.28642 14.2617 2.73242 13.8157 2.73242 13.2617V10.2617C2.73242 9.14532 3.61602 8.26172 4.73242 8.26172C5.84882 8.26172 6.73047 9.14532 6.73047 10.2617V13.2617C6.73047 13.8157 7.17637 14.2617 7.73047 14.2617C8.28447 14.2617 8.73047 13.8157 8.73047 13.2617V10.2617C8.73047 8.06442 6.92972 6.26172 4.73242 6.26172C4.00432 6.26172 3.32067 6.45999 2.73047 6.80469V1.26172C2.73047 0.707719 2.28447 0.261719 1.73047 0.261719H1.73242Z" fill="#241F31"/>
</svg>
