<svg width="14" height="14" viewBox="0 0 14 14" fill="none" xmlns="http://www.w3.org/2000/svg">
<path d="M9.5 7C9.5 7.13132 9.52567 7.26136 9.57593 7.38269C9.62618 7.50402 9.69987 7.61429 9.79272 7.70715C9.88558 7.80001 9.99586 7.8737 10.1172 7.92395C10.2385 7.9742 10.3687 8 10.5 8H11.5V12.996C11.5 13.1278 11.526 13.2584 11.5764 13.3802C11.6269 13.5021 11.7007 13.6127 11.7939 13.7059C11.8872 13.7992 11.9978 13.8731 12.1196 13.9236C12.2414 13.974 12.3721 14 12.5039 14C12.7691 13.9989 13.0229 13.8926 13.2097 13.7043C13.3965 13.5161 13.5011 13.2612 13.5 12.996V8C13.5 7.73736 13.4482 7.47727 13.3477 7.23462C13.2471 6.99197 13.0998 6.77153 12.9141 6.58582C12.7283 6.4001 12.508 6.25273 12.2654 6.15222C12.0227 6.05171 11.7626 6 11.5 6H10.5C10.3687 6 10.2385 6.02592 10.1172 6.07617C9.99586 6.12643 9.88558 6.20011 9.79272 6.29297C9.69987 6.38583 9.62618 6.49598 9.57593 6.61731C9.52567 6.73864 9.5 6.86868 9.5 7Z" fill="#241F31"/>
<path d="M1.5 0C0.946 0 0.5 0.446 0.5 1V13C0.5 13.554 0.946 14 1.5 14C2.054 14 2.5 13.554 2.5 13V10C2.5 8.8836 3.3836 8 4.5 8C5.6164 8 6.49805 8.8836 6.49805 10V13C6.49805 13.554 6.94395 14 7.49805 14C8.05205 14 8.49805 13.554 8.49805 13V10C8.49805 7.8027 6.6973 6 4.5 6C3.7722 6 3.08815 6.19847 2.49805 6.54297V1C2.49805 0.446 2.05205 0 1.49805 0H1.5Z" fill="#241F31"/>
</svg>
