<svg width="15" height="15" viewBox="0 0 15 15" fill="none" xmlns="http://www.w3.org/2000/svg">
<path d="M1.73242 0.621094C1.17842 0.621094 0.732422 1.06709 0.732422 1.62109V13.6211C0.732422 14.1751 1.17842 14.6211 1.73242 14.6211C2.28642 14.6211 2.73242 14.1751 2.73242 13.6211V10.6211C2.73242 9.50469 3.61602 8.62109 4.73242 8.62109C5.84882 8.62109 6.73047 9.50469 6.73047 10.6211V13.6211C6.73047 14.1751 7.17637 14.6211 7.73047 14.6211C8.28447 14.6211 8.73047 14.1751 8.73047 13.6211V10.6211C8.73047 8.42379 6.92972 6.62109 4.73242 6.62109C4.00432 6.62109 3.32067 6.81936 2.73047 7.16406V1.62109C2.73047 1.06709 2.28447 0.621094 1.73047 0.621094H1.73242Z" fill="#241F31"/>
<path d="M9.73242 7.62109V9.62097C9.73242 9.88363 9.78401 10.1438 9.88452 10.3865C9.98503 10.6291 10.1324 10.8496 10.3181 11.0353C10.5038 11.221 10.7244 11.3684 10.967 11.4689C11.2097 11.5694 11.4698 11.6211 11.7324 11.6211H12.7324V13.6211C12.7324 13.7524 12.7581 13.8825 12.8083 14.0038C12.8586 14.1251 12.9323 14.2354 13.0251 14.3282C13.118 14.4211 13.2283 14.4948 13.3496 14.545C13.4709 14.5953 13.6011 14.6211 13.7324 14.6211C13.8637 14.6211 13.9937 14.5953 14.115 14.545C14.2363 14.4948 14.3466 14.4211 14.4395 14.3282C14.5323 14.2354 14.606 14.1251 14.6562 14.0038C14.7065 13.8825 14.7324 13.7524 14.7324 13.6211V7.62109C14.7324 7.48977 14.7065 7.35973 14.6562 7.2384C14.606 7.11708 14.5323 7.00692 14.4395 6.91406C14.3466 6.8212 14.2363 6.74752 14.115 6.69727C13.9937 6.64701 13.8637 6.62109 13.7324 6.62109C13.6011 6.62109 13.4709 6.64701 13.3496 6.69727C13.2283 6.74752 13.118 6.8212 13.0251 6.91406C12.9323 7.00692 12.8586 7.11708 12.8083 7.2384C12.7581 7.35973 12.7324 7.48977 12.7324 7.62109V9.62109H11.7324V7.62109C11.7324 7.48977 11.7065 7.35973 11.6562 7.2384C11.606 7.11708 11.5323 7.00692 11.4395 6.91406C11.3466 6.8212 11.2363 6.74752 11.115 6.69727C10.9937 6.64701 10.8637 6.62109 10.7324 6.62109C10.6011 6.62109 10.4709 6.64701 10.3496 6.69727C10.2283 6.74752 10.118 6.8212 10.0251 6.91406C9.93229 7.00692 9.8586 7.11708 9.80835 7.2384C9.75809 7.35973 9.73242 7.48977 9.73242 7.62109Z" fill="#241F31"/>
</svg>
